<?xml version="1.0" encoding="UTF-8" standalone="no"?>
<svg width="32px" height="29px" viewBox="0 0 32 29" version="1.1" xmlns="http://www.w3.org/2000/svg" xmlns:xlink="http://www.w3.org/1999/xlink" xmlns:sketch="http://www.bohemiancoding.com/sketch/ns">
    <!-- Generator: Sketch 3.0.4 (8054) - http://www.bohemiancoding.com/sketch -->
    <title>high2</title>
    <desc>Created with Sketch.</desc>
    <defs></defs>
    <g id="Page-1" stroke="none" stroke-width="1" fill="none" fill-rule="evenodd" sketch:type="MSPage">
        <g id="high2" sketch:type="MSLayerGroup">
            <g id="c75_volume" fill="#FFFFFF" sketch:type="MSShapeGroup">
                <path d="M4.363,9.297 L0,9.297 L0,19.012 L4.363,19.012 L12.607,25.126 C12.607,25.126 14.119,26.394 14.119,25.085 L14.119,3.034 C14.119,2.006 12.789,3.01 12.789,3.01 L4.363,9.297 L4.363,9.297 Z" id="Shape"></path>
                <path d="M18.816,7.4 C18.38,6.966 17.679,6.966 17.248,7.4 C16.812,7.834 16.812,8.538 17.248,8.968 C18.674,10.399 19.381,12.254 19.383,14.125 C19.381,16 18.674,17.867 17.248,19.291 C16.812,19.725 16.812,20.427 17.248,20.864 C17.463,21.082 17.746,21.188 18.033,21.188 C18.314,21.188 18.599,21.082 18.816,20.864 C20.671,19.005 21.603,16.558 21.601,14.125 C21.604,11.691 20.672,9.257 18.816,7.4 L18.816,7.4 Z" id="Shape"></path>
                <path d="M21.824,3.906 C21.386,3.47 20.685,3.47 20.252,3.906 C19.822,4.341 19.822,5.043 20.252,5.478 C22.65,7.874 23.844,10.998 23.848,14.135 C23.844,17.289 22.655,20.427 20.252,22.837 C19.82,23.271 19.822,23.97 20.252,24.407 C20.471,24.619 20.754,24.729 21.039,24.729 C21.322,24.729 21.607,24.619 21.824,24.407 C24.656,21.567 26.066,17.845 26.066,14.135 C26.066,10.437 24.645,6.73 21.824,3.906 L21.824,3.906 Z" id="Shape"></path>
                <path d="M25.508,0.326 C25.076,-0.11 24.373,-0.11 23.938,0.326 C23.508,0.76 23.508,1.464 23.938,1.894 C27.325,5.281 29.016,9.703 29.016,14.139 C29.016,18.588 27.33,23.023 23.938,26.417 C23.504,26.85 23.508,27.556 23.938,27.987 C24.157,28.202 24.442,28.309 24.727,28.309 C25.008,28.309 25.291,28.202 25.508,27.987 C29.33,24.162 31.238,19.142 31.237,14.138 C31.238,9.143 29.32,4.137 25.508,0.326 L25.508,0.326 Z" id="Shape"></path>
            </g>
            <g id="Capa_1"></g>
        </g>
    </g>
</svg>